<svg xmlns="http://www.w3.org/2000/svg" version="1.1" xmlns:xlink="http://www.w3.org/1999/xlink" xmlns:svgjs="http://svgjs.dev/svgjs" width="1000" height="1000"><g clip-path="url(#SvgjsClipPath1258)"><rect width="1000" height="1000" fill="#ffffff"></rect><g transform="matrix(11.904761904761905,0,0,11.904761904761905,0,47.61904761904759)"><svg xmlns="http://www.w3.org/2000/svg" version="1.1" xmlns:xlink="http://www.w3.org/1999/xlink" xmlns:svgjs="http://svgjs.dev/svgjs" width="84" height="76"><svg width="84" height="76" viewBox="0 0 84 76" fill="none" xmlns="http://www.w3.org/2000/svg">
<path d="M72.5061 0H10.5081C4.70465 0 0 4.70465 0 10.5081V65.1504C0 70.9539 4.70465 75.6585 10.5081 75.6585H72.5061C78.3096 75.6585 83.0142 70.9539 83.0142 65.1504V10.5081C83.0142 4.70465 78.3096 0 72.5061 0Z" fill="white"></path>
<path d="M58.4034 46.9425H24.4947C24.3196 46.9425 24.1516 46.8729 24.0277 46.749C23.9038 46.6252 23.8342 46.4572 23.8342 46.282V21.677C23.8342 21.5018 23.9038 21.3338 24.0277 21.2099C24.1516 21.0861 24.3196 21.0165 24.4947 21.0165H58.4034C58.5785 21.0165 58.7466 21.0861 58.8704 21.2099C58.9943 21.3338 59.0639 21.5018 59.0639 21.677V46.282C59.0639 46.4572 58.9943 46.6252 58.8704 46.749C58.7466 46.8729 58.5785 46.9425 58.4034 46.9425ZM25.1553 45.6214H57.7428V22.3376H25.1553V45.6214Z" fill="black"></path>
<path d="M59.2317 54.7038H23.6658C22.7278 54.7038 21.8797 54.2229 21.3962 53.419C20.9127 52.6152 20.8889 51.6402 21.3301 50.8126L23.9108 45.9715C23.9672 45.8658 24.0513 45.7775 24.1541 45.716C24.2568 45.6544 24.3743 45.622 24.4941 45.6221H58.4027C58.5225 45.622 58.64 45.6544 58.7427 45.716C58.8455 45.7775 58.9295 45.8658 58.9859 45.9715L61.5667 50.8126C62.0079 51.6409 61.9828 52.6152 61.4999 53.4197C61.0171 54.2242 60.1696 54.7038 59.2317 54.7038ZM24.8911 46.9425L22.4966 51.4341C22.3879 51.6357 22.3336 51.8621 22.3393 52.091C22.345 52.32 22.4104 52.5435 22.529 52.7393C22.6459 52.9365 22.8123 53.0996 23.0117 53.2126C23.2111 53.3256 23.4366 53.3844 23.6658 53.3834H59.2317C59.4617 53.3866 59.6886 53.3294 59.8896 53.2175C60.0906 53.1056 60.2587 52.9429 60.3771 52.7456C60.4955 52.5483 60.5601 52.3235 60.5644 52.0934C60.5687 51.8634 60.5125 51.6363 60.4015 51.4348L58.007 46.9431L24.8911 46.9425Z" fill="black"></path>
<path d="M60.9841 51.7836H21.914C21.7389 51.7836 21.5708 51.714 21.447 51.5902C21.3231 51.4663 21.2535 51.2983 21.2535 51.1231C21.2535 50.9479 21.3231 50.7799 21.447 50.656C21.5708 50.5321 21.7389 50.4625 21.914 50.4625H60.9841C61.1593 50.4625 61.3273 50.5321 61.4511 50.656C61.575 50.7799 61.6446 50.9479 61.6446 51.1231C61.6446 51.2983 61.575 51.4663 61.4511 51.5902C61.3273 51.714 61.1593 51.7836 60.9841 51.7836ZM30.0743 36.8786L28.5788 30.984H29.3834L30.0829 33.9663L30.5202 36.0041H30.5373C30.6338 35.4182 30.8174 34.7187 31.0182 33.9577L31.8056 30.9847H32.6015L33.3188 33.9756L33.7304 35.9955H33.7475L34.2198 33.9577L34.9979 30.9847H35.776L34.1055 36.8793H33.3096L32.5665 33.8098L32.1814 31.8856H32.1642C32.0473 32.5347 31.8956 33.177 31.7098 33.8098L30.8702 36.8793L30.0743 36.8786Z" fill="black"></path>
<path d="M38.407 36.8786L36.9115 30.984H37.716L38.4155 33.9663L38.8528 36.0041H38.87C38.9664 35.4182 39.1501 34.7187 39.3509 33.9577L40.1382 30.9847H40.9342L41.6515 33.9756L42.063 35.9955H42.0802L42.5525 33.9577L43.3306 30.9847H44.1087L42.4382 36.8793H41.6423L40.8992 33.8098L40.5141 31.8856H40.4969C40.3799 32.5347 40.2282 33.177 40.0424 33.8098L39.2029 36.8793H38.407V36.8786Z" fill="black"></path>
<path d="M46.739 36.8786L45.2435 30.984H46.048L46.7475 33.9663L47.1848 36.0041H47.202C47.2984 35.4182 47.4821 34.7187 47.6829 33.9577L48.4702 30.9847H49.2662L49.9835 33.9756L50.395 35.9955H50.4122L50.8845 33.9577L51.6626 30.9847H52.4407L50.7702 36.8793H49.9743L49.2312 33.8098L48.8461 31.8856H48.8289C48.7119 32.5347 48.5602 33.177 48.3744 33.8098L47.5349 36.8793H46.739V36.8786Z" fill="black"></path>
<path d="M53.2783 36.4242C53.2783 36.1005 53.4969 35.8733 53.8034 35.8733C54.1099 35.8733 54.3193 36.1005 54.3193 36.4242C54.3193 36.7393 54.1178 36.9751 53.7941 36.9751C53.4883 36.9751 53.2783 36.7393 53.2783 36.4242Z" fill="black"></path>
</svg></svg></g></g><defs><clipPath id="SvgjsClipPath1258"><rect width="1000" height="1000" x="0" y="0" rx="200" ry="200"></rect></clipPath></defs></svg>